<svg width="21" height="19" viewBox="0 0 21 19" fill="none" xmlns="http://www.w3.org/2000/svg">
<g id="chat">
<path id="Subtract" fill-rule="evenodd" clip-rule="evenodd" d="M9.69922 0.5H11.6992C16.6698 0.5 20.6992 4.52944 20.6992 9.5C20.6992 14.4706 16.6698 18.5 11.6992 18.5H4.69922C2.49008 18.5 0.699219 16.7091 0.699219 14.5V9.5C0.699219 4.52944 4.72866 0.5 9.69922 0.5ZM6.69922 12.25C6.28501 12.25 5.94922 11.9142 5.94922 11.5C5.94922 11.0858 6.28501 10.75 6.69922 10.75H10.6992C11.1134 10.75 11.4492 11.0858 11.4492 11.5C11.4492 11.9142 11.1134 12.25 10.6992 12.25H6.69922ZM6.69922 8.25C6.28501 8.25 5.94922 7.91421 5.94922 7.5C5.94922 7.08579 6.28501 6.75 6.69922 6.75H14.6992C15.1134 6.75 15.4492 7.08579 15.4492 7.5C15.4492 7.91421 15.1134 8.25 14.6992 8.25H6.69922Z" fill="#866856"/>
</g>
</svg>
