<svg width="24" height="24" viewBox="0 0 24 24" fill="none" xmlns="http://www.w3.org/2000/svg">
<g id="Huge-icon/arrows/outline/church">
<path id="Vector" d="M12 2V6.99652M14 3.99826H10M17 12L19.8944 13.4472C20.572 13.786 21 14.4785 21 15.2361V22H17M17 22V10L12 7L7 10V22M17 22H7M7 12L4.10557 13.4472C3.428 13.786 3 14.4785 3 15.2361V22H7M10 22V18C10 16.8954 10.8954 16 12 16C13.1046 16 14 16.8954 14 18V22M12.009 11.9922H12" stroke="#664F42" stroke-width="1.5" stroke-linecap="round" stroke-linejoin="round"/>
</g>
</svg>
