<svg width="26" height="18" viewBox="0 0 26 18" fill="none" xmlns="http://www.w3.org/2000/svg">
<g id="Huge-icon/editor/bulk/format-quote" clip-path="url(#clip0_2997_7065)">
<g id="Vector 2733">
<path d="M8.5 0.664062H2.5C1.39543 0.664062 0.5 1.55949 0.5 2.66406V8.66406C0.5 9.76863 1.39543 10.6641 2.5 10.6641H5.5L3.61388 14.4363C2.94898 15.7661 3.91597 17.3307 5.40273 17.3307H5.9306C6.68814 17.3307 7.38067 16.9027 7.71945 16.2252L10.2889 11.0864C10.4277 10.8086 10.5 10.5024 10.5 10.1919V2.66406C10.5 1.55949 9.60457 0.664062 8.5 0.664062Z" fill="#664F42"/>
</g>
<path id="Vector 2734" opacity="0.4" d="M23.5 0.664062H17.5C16.3954 0.664062 15.5 1.55949 15.5 2.66406V8.66406C15.5 9.76863 16.3954 10.6641 17.5 10.6641H20.5L18.6139 14.4363C17.949 15.7661 18.916 17.3307 20.4027 17.3307H20.9306C21.6881 17.3307 22.3807 16.9027 22.7195 16.2252L25.2889 11.0864C25.4277 10.8086 25.5 10.5024 25.5 10.1919V2.66406C25.5 1.55949 24.6046 0.664062 23.5 0.664062Z" fill="#664F42"/>
</g>
<defs>
<clipPath id="clip0_2997_7065">
<rect width="26" height="18" fill="white"/>
</clipPath>
</defs>
</svg>
