<svg width="21" height="21" viewBox="0 0 21 21" fill="none" xmlns="http://www.w3.org/2000/svg">
<g id="grid">
<path id="combo shape" fill-rule="evenodd" clip-rule="evenodd" d="M2.09961 0.5C0.99504 0.5 0.0996094 1.39543 0.0996094 2.5L0.0996094 4.5C0.0996094 5.60457 0.99504 6.5 2.09961 6.5H6.09961C7.20418 6.5 8.09961 5.60457 8.09961 4.5V2.5C8.09961 1.39543 7.20418 0.5 6.09961 0.5H2.09961ZM2.09961 10.5C0.99504 10.5 0.0996094 11.3954 0.0996094 12.5L0.0996094 18.5C0.0996094 19.6046 0.99504 20.5 2.09961 20.5H6.09961C7.20418 20.5 8.09961 19.6046 8.09961 18.5V12.5C8.09961 11.3954 7.20418 10.5 6.09961 10.5H2.09961ZM12.0996 2.5C12.0996 1.39543 12.995 0.5 14.0996 0.5H18.0996C19.2042 0.5 20.0996 1.39543 20.0996 2.5V8.5C20.0996 9.60457 19.2042 10.5 18.0996 10.5H14.0996C12.995 10.5 12.0996 9.60457 12.0996 8.5V2.5ZM14.0996 14.5C12.995 14.5 12.0996 15.3954 12.0996 16.5V18.5C12.0996 19.6046 12.995 20.5 14.0996 20.5H18.0996C19.2042 20.5 20.0996 19.6046 20.0996 18.5V16.5C20.0996 15.3954 19.2042 14.5 18.0996 14.5H14.0996Z" fill="#664F42"/>
</g>
</svg>
