<svg width="25" height="24" viewBox="0 0 25 24" fill="none" xmlns="http://www.w3.org/2000/svg">
<g id="Huge-icon/grid/outline/grid 01">
<g id="Vector">
<path d="M2.09766 4C2.09766 2.89543 2.99309 2 4.09766 2H8.09766C9.20223 2 10.0977 2.89543 10.0977 4V6C10.0977 7.10457 9.20223 8 8.09766 8H4.09766C2.99309 8 2.09766 7.10457 2.09766 6V4Z" stroke="#5A5A5A" stroke-width="1.5" stroke-linejoin="round"/>
<path d="M2.09766 14C2.09766 12.8954 2.99309 12 4.09766 12H8.09766C9.20223 12 10.0977 12.8954 10.0977 14V20C10.0977 21.1046 9.20223 22 8.09766 22H4.09766C2.99309 22 2.09766 21.1046 2.09766 20V14Z" stroke="#5A5A5A" stroke-width="1.5" stroke-linejoin="round"/>
<path d="M14.0977 4C14.0977 2.89543 14.9931 2 16.0977 2H20.0977C21.2022 2 22.0977 2.89543 22.0977 4V10C22.0977 11.1046 21.2022 12 20.0977 12H16.0977C14.9931 12 14.0977 11.1046 14.0977 10V4Z" stroke="#5A5A5A" stroke-width="1.5" stroke-linejoin="round"/>
<path d="M14.0977 18C14.0977 16.8954 14.9931 16 16.0977 16H20.0977C21.2022 16 22.0977 16.8954 22.0977 18V20C22.0977 21.1046 21.2022 22 20.0977 22H16.0977C14.9931 22 14.0977 21.1046 14.0977 20V18Z" stroke="#5A5A5A" stroke-width="1.5" stroke-linejoin="round"/>
</g>
</g>
</svg>
