<svg width="25" height="24" viewBox="0 0 25 24" fill="none" xmlns="http://www.w3.org/2000/svg">
<g id="Huge-icon/arrows/outline/church">
<path id="Vector" d="M12.5 2V6.99652M14.5 3.99826H10.5M17.5 12L20.3944 13.4472C21.072 13.786 21.5 14.4785 21.5 15.2361V22H17.5M17.5 22V10L12.5 7L7.5 10V22M17.5 22H7.5M7.5 12L4.60557 13.4472C3.928 13.786 3.5 14.4785 3.5 15.2361V22H7.5M10.5 22V18C10.5 16.8954 11.3954 16 12.5 16C13.6046 16 14.5 16.8954 14.5 18V22M12.509 11.9922H12.5" stroke="#5A5A5A" stroke-width="1.5" stroke-linecap="round" stroke-linejoin="round"/>
</g>
</svg>
