<svg width="25" height="24" viewBox="0 0 25 24" fill="none" xmlns="http://www.w3.org/2000/svg">
<g id="Huge-icon/arrows/solid/church">
<g id="Vector">
<path fill-rule="evenodd" clip-rule="evenodd" d="M12.5 1.25C12.9142 1.25 13.25 1.58579 13.25 2V3.24826H14.5C14.9142 3.24826 15.25 3.58405 15.25 3.99826C15.25 4.41247 14.9142 4.74826 14.5 4.74826H13.25V6.99652C13.25 7.41073 12.9142 7.74652 12.5 7.74652C12.0858 7.74652 11.75 7.41073 11.75 6.99652V4.74826H10.5C10.0858 4.74826 9.75 4.41247 9.75 3.99826C9.75 3.58405 10.0858 3.24826 10.5 3.24826H11.75V2C11.75 1.58579 12.0858 1.25 12.5 1.25Z" fill="#866856"/>
<path d="M5.55 12.1365L4.27016 12.7764C3.33851 13.2422 2.75 14.1944 2.75 15.2361V22C2.75 22.4142 3.08579 22.75 3.5 22.75H5.69945C5.60317 22.5191 5.55 22.2658 5.55 22V12.1365Z" fill="#866856"/>
<path d="M19.3006 22.75H21.5C21.9142 22.75 22.25 22.4142 22.25 22V15.2361C22.25 14.1944 21.6615 13.2422 20.7298 12.7764L19.45 12.1365V22C19.45 22.2658 19.3968 22.5191 19.3006 22.75Z" fill="#866856"/>
<path fill-rule="evenodd" clip-rule="evenodd" d="M12.1141 6.35688C12.3516 6.21437 12.6484 6.21437 12.8859 6.35688L17.8859 9.35688C18.1118 9.49242 18.25 9.73655 18.25 10V22C18.25 22.4142 17.9142 22.75 17.5 22.75H15.25V18C15.25 16.4812 14.0188 15.25 12.5 15.25C10.9812 15.25 9.75 16.4812 9.75 18V22.75H7.5C7.08579 22.75 6.75 22.4142 6.75 22V10C6.75 9.73655 6.88822 9.49242 7.11413 9.35688L12.1141 6.35688ZM11.25 22.75H13.75V18C13.75 17.3096 13.1904 16.75 12.5 16.75C11.8096 16.75 11.25 17.3096 11.25 18V22.75ZM11.5 11.9922C11.5 11.4399 11.9477 10.9922 12.5 10.9922H12.509C13.0613 10.9922 13.509 11.4399 13.509 11.9922C13.509 12.5445 13.0613 12.9922 12.509 12.9922H12.5C11.9477 12.9922 11.5 12.5445 11.5 11.9922Z" fill="#866856"/>
</g>
</g>
</svg>
