<svg width="17" height="21" viewBox="0 0 17 21" fill="none" xmlns="http://www.w3.org/2000/svg">
<g id="online learning">
<path id="Combo shape" fill-rule="evenodd" clip-rule="evenodd" d="M4.72992 2.86983C5.74197 2.1639 6.97195 1.75 8.30085 1.75C9.62974 1.75 10.8597 2.1639 11.8718 2.86983C12.2115 3.1068 12.679 3.02349 12.916 2.68376C13.153 2.34403 13.0697 1.87652 12.7299 1.63955C11.4743 0.76373 9.94645 0.25 8.30085 0.25C6.65525 0.25 5.12739 0.76373 3.87177 1.63955C3.53204 1.87652 3.44874 2.34403 3.68571 2.68376C3.92268 3.02349 4.39019 3.1068 4.72992 2.86983ZM8.30066 4.75C7.70745 4.75 7.15347 4.90825 6.67621 5.18433C6.31766 5.39174 5.85886 5.26922 5.65146 4.91067C5.44405 4.55213 5.56657 4.09333 5.92512 3.88592C6.62454 3.48133 7.43673 3.25 8.30066 3.25C9.1646 3.25 9.97678 3.48133 10.6762 3.88592C11.0348 4.09333 11.1573 4.55213 10.9499 4.91067C10.7425 5.26922 10.2837 5.39174 9.92512 5.18433C9.44785 4.90825 8.89387 4.75 8.30066 4.75ZM7.55078 8.7521C5.86877 7.68752 3.60118 7.19607 1.89624 7.00877C1.01792 6.91227 0.300781 7.62535 0.300781 8.50514V17.2666C0.300781 18.1464 1.01792 18.8598 1.89624 18.9563C3.60118 19.1436 5.86877 19.635 7.55078 20.6996V8.7521ZM9.05078 20.6996C10.7328 19.635 13.0004 19.1436 14.7053 18.9563C15.5836 18.8598 16.3008 18.1464 16.3008 17.2666V8.50514C16.3008 7.62535 15.5836 6.91227 14.7053 7.00877C13.0004 7.19607 10.7328 7.68752 9.05078 8.7521V20.6996Z" fill="#664F42"/>
</g>
</svg>
