<svg width="25" height="24" viewBox="0 0 25 24" fill="none" xmlns="http://www.w3.org/2000/svg">
<g id="huge-icon/education/outline/online learning">
<path id="Vector" d="M12.3008 10.3748V21.4575M10.3008 5.53513C10.8891 5.19479 11.5722 5 12.3008 5C13.0294 5 13.7124 5.19479 14.3008 5.53513M8.30078 3.25469C9.43461 2.46381 10.8135 2 12.3008 2C13.788 2 15.1669 2.46381 16.3008 3.25469M5.89624 8.00877C7.67095 8.20374 10.0553 8.72825 11.7542 9.88568C12.0808 10.1081 12.5208 10.1081 12.8473 9.88568C14.5463 8.72825 16.9306 8.20374 18.7053 8.00877C19.5836 7.91227 20.3008 8.62535 20.3008 9.50514V18.2666C20.3008 19.1464 19.5836 19.8598 18.7053 19.9563C16.9306 20.1512 14.5463 20.6757 12.8473 21.8332C12.5208 22.0556 12.0808 22.0556 11.7542 21.8332C10.0553 20.6757 7.67095 20.1512 5.89624 19.9563C5.01792 19.8598 4.30078 19.1464 4.30078 18.2666V9.50514C4.30078 8.62535 5.01792 7.91227 5.89624 8.00877Z" stroke="#5A5A5A" stroke-width="1.5" stroke-linecap="round"/>
</g>
</svg>
