<svg width="16" height="16" viewBox="0 0 16 16" fill="none" xmlns="http://www.w3.org/2000/svg">
<g id="Huge-icon/chair">
<g id="Vector">
<mask id="path-1-inside-1_3251_26792" fill="white">
<path d="M3.91634 8.27818H12.0811C12.4032 8.27818 12.6654 8.53832 12.6654 8.85798C12.6654 9.17765 12.4032 9.43559 12.0811 9.43559H3.91634C3.59419 9.43559 3.33203 9.17544 3.33203 8.85798C3.33425 8.53832 3.59641 8.27818 3.91634 8.27818ZM5.40931 11.7504H10.5859L10.3948 10.0396H11.7878V14.6693H10.9124L10.6481 12.3192C10.6303 12.3236 10.6125 12.3302 10.5925 12.3302H5.40043C5.38043 12.3302 5.36266 12.3236 5.34266 12.3192L5.07828 14.6693H4.20293V10.0396H5.59594L5.40931 11.7504ZM4.44954 7.70058L3.98965 2.27068C3.95188 1.76363 4.35179 1.33594 4.86056 1.33594H11.1368C11.6478 1.33594 12.05 1.76363 12.0077 2.27068L11.5479 7.70278H4.44954V7.70058Z"/>
</mask>
<path d="M3.91634 8.27818H12.0811C12.4032 8.27818 12.6654 8.53832 12.6654 8.85798C12.6654 9.17765 12.4032 9.43559 12.0811 9.43559H3.91634C3.59419 9.43559 3.33203 9.17544 3.33203 8.85798C3.33425 8.53832 3.59641 8.27818 3.91634 8.27818ZM5.40931 11.7504H10.5859L10.3948 10.0396H11.7878V14.6693H10.9124L10.6481 12.3192C10.6303 12.3236 10.6125 12.3302 10.5925 12.3302H5.40043C5.38043 12.3302 5.36266 12.3236 5.34266 12.3192L5.07828 14.6693H4.20293V10.0396H5.59594L5.40931 11.7504ZM4.44954 7.70058L3.98965 2.27068C3.95188 1.76363 4.35179 1.33594 4.86056 1.33594H11.1368C11.6478 1.33594 12.05 1.76363 12.0077 2.27068L11.5479 7.70278H4.44954V7.70058Z" fill="black"/>
<path d="M3.33203 8.85798L-4.42536 8.80407L-4.42554 8.83103V8.85798H3.33203ZM5.40931 11.7504L-2.30251 10.9091L-3.24054 19.508H5.40931V11.7504ZM10.5859 11.7504V19.508H19.2581L18.2955 10.8894L10.5859 11.7504ZM10.3948 10.0396V2.28207H1.72259L2.68515 10.9007L10.3948 10.0396ZM11.7878 10.0396H19.5454V2.28207H11.7878V10.0396ZM11.7878 14.6693V22.4268H19.5454V14.6693H11.7878ZM10.9124 14.6693L3.2035 15.5365L3.97865 22.4268H10.9124V14.6693ZM10.6481 12.3192L18.357 11.4519L17.3679 2.65945L8.78022 4.78983L10.6481 12.3192ZM5.34266 12.3192L7.01316 4.7436L-1.40283 2.88778L-2.36628 11.4519L5.34266 12.3192ZM5.07828 14.6693V22.4268H12.0121L12.7872 15.5365L5.07828 14.6693ZM4.20293 14.6693H-3.55464V22.4268H4.20293V14.6693ZM4.20293 10.0396V2.28207H-3.55464V10.0396H4.20293ZM5.59594 10.0396L13.3078 10.8809L14.2458 2.28207H5.59594V10.0396ZM4.44954 7.70058H12.2071V7.37264L12.1794 7.04588L4.44954 7.70058ZM3.98965 2.27068L-3.74649 2.84692L-3.74357 2.88616L-3.74025 2.92537L3.98965 2.27068ZM12.0077 2.27068L19.7377 2.92511L19.7386 2.91427L12.0077 2.27068ZM11.5479 7.70278V15.4604H18.6764L19.2778 8.35721L11.5479 7.70278ZM4.44954 7.70278H-3.30803V15.4604H4.44954V7.70278ZM3.91634 8.27818V16.0358H12.0811V8.27818V0.520602H3.91634V8.27818ZM12.0811 8.27818V16.0358C8.17545 16.0358 4.90779 12.8791 4.90779 8.85798H12.6654H20.4229C20.4229 4.19751 16.631 0.520602 12.0811 0.520602V8.27818ZM12.6654 8.85798H4.90779C4.90779 4.79853 8.21416 1.67801 12.0811 1.67801V9.43559V17.1932C16.5922 17.1932 20.4229 13.5568 20.4229 8.85798H12.6654ZM12.0811 9.43559V1.67801H3.91634V9.43559V17.1932H12.0811V9.43559ZM3.91634 9.43559V1.67801C7.80263 1.67801 11.0896 4.81549 11.0896 8.85798H3.33203H-4.42554C-4.42554 13.5354 -0.614247 17.1932 3.91634 17.1932V9.43559ZM3.33203 8.85798L11.0894 8.9119C11.062 12.8611 7.8541 16.0358 3.91634 16.0358V8.27818V0.520602C-0.661272 0.520602 -4.39347 4.21549 -4.42536 8.80407L3.33203 8.85798ZM5.40931 11.7504V19.508H10.5859V11.7504V3.99282H5.40931V11.7504ZM10.5859 11.7504L18.2955 10.8894L18.1044 9.1786L10.3948 10.0396L2.68515 10.9007L2.87622 12.6114L10.5859 11.7504ZM10.3948 10.0396V17.7972H11.7878V10.0396V2.28207H10.3948V10.0396ZM11.7878 10.0396H4.03022V14.6693H11.7878H19.5454V10.0396H11.7878ZM11.7878 14.6693V6.9117H10.9124V14.6693V22.4268H11.7878V14.6693ZM10.9124 14.6693L18.6214 13.802L18.357 11.4519L10.6481 12.3192L2.93912 13.1864L3.2035 15.5365L10.9124 14.6693ZM10.6481 12.3192L8.78022 4.78983C8.65241 4.82154 8.53591 4.85444 8.56447 4.84653C8.56507 4.84636 8.57272 4.84424 8.58278 4.84149C8.59329 4.83861 8.60947 4.83421 8.62937 4.8289C8.6685 4.81847 8.73035 4.80231 8.80686 4.78391C9.10194 4.71293 9.75177 4.57263 10.5925 4.57263V12.3302V20.0878C11.4533 20.0878 12.122 19.9442 12.4354 19.8688C12.5165 19.8493 12.5829 19.832 12.6265 19.8203C12.6679 19.8093 12.7014 19.8 12.7049 19.799C12.7424 19.7886 12.6348 19.819 12.5159 19.8485L10.6481 12.3192ZM10.5925 12.3302V4.57263H5.40043V12.3302V20.0878H10.5925V12.3302ZM5.40043 12.3302V4.57263C6.24135 4.57263 6.88666 4.71389 7.13527 4.77193C7.24381 4.79727 7.34994 4.8253 7.3013 4.81271C7.29168 4.81022 7.16779 4.7777 7.01316 4.7436L5.34266 12.3192L3.67216 19.8948C3.52754 19.8629 3.41337 19.8328 3.41333 19.8328C3.37427 19.8227 3.48984 19.8532 3.60782 19.8808C3.87531 19.9432 4.53951 20.0878 5.40043 20.0878V12.3302ZM5.34266 12.3192L-2.36628 11.4519L-2.63067 13.802L5.07828 14.6693L12.7872 15.5365L13.0516 13.1864L5.34266 12.3192ZM5.07828 14.6693V6.9117H4.20293V14.6693V22.4268H5.07828V14.6693ZM4.20293 14.6693H11.9605V10.0396H4.20293H-3.55464V14.6693H4.20293ZM4.20293 10.0396V17.7972H5.59594V10.0396V2.28207H4.20293V10.0396ZM5.59594 10.0396L-2.11589 9.19838L-2.30251 10.9091L5.40931 11.7504L13.1211 12.5917L13.3078 10.8809L5.59594 10.0396ZM4.44954 7.70058L12.1794 7.04588L11.7196 1.61599L3.98965 2.27068L-3.74025 2.92537L-3.28036 8.35527L4.44954 7.70058ZM3.98965 2.27068L11.7258 1.69444C12.0258 5.72257 8.82678 9.09351 4.86056 9.09351V1.33594V-6.42164C-0.123201 -6.42164 -4.12207 -2.19532 -3.74649 2.84692L3.98965 2.27068ZM4.86056 1.33594V9.09351H11.1368V1.33594V-6.42164H4.86056V1.33594ZM11.1368 1.33594V9.09351C7.22638 9.09351 3.933 5.7582 4.27691 1.62709L12.0077 2.27068L19.7386 2.91427C20.1669 -2.23094 16.0693 -6.42164 11.1368 -6.42164V1.33594ZM12.0077 2.27068L4.27782 1.61625L3.81793 7.04835L11.5479 7.70278L19.2778 8.35721L19.7377 2.92511L12.0077 2.27068ZM11.5479 7.70278V-0.0547953H4.44954V7.70278V15.4604H11.5479V7.70278ZM4.44954 7.70278H12.2071V7.70058H4.44954H-3.30803V7.70278H4.44954Z" fill="#A8A8A8" mask="url(#path-1-inside-1_3251_26792)"/>
</g>
</g>
</svg>
