<svg width="12" height="12" viewBox="0 0 12 12" fill="none" xmlns="http://www.w3.org/2000/svg">
<g id="next">
<path id="combo shape" d="M10.5 0.25C10.9142 0.25 11.25 0.585786 11.25 1V11C11.25 11.4142 10.9142 11.75 10.5 11.75C10.0858 11.75 9.75 11.4142 9.75 11V7.58496C9.68353 7.6356 9.61305 7.68381 9.53809 7.72754L3.50781 11.2451C2.1745 12.0229 0.5 11.0612 0.5 9.51758V2.48242C0.5 0.938841 2.1745 -0.0228834 3.50781 0.754883L9.53809 4.27246C9.61288 4.31609 9.68366 4.36356 9.75 4.41406V1C9.75 0.585786 10.0858 0.25 10.5 0.25Z" fill="white" fill-opacity="0.8"/>
</g>
</svg>
