<svg width="25" height="24" viewBox="0 0 25 24" fill="none" xmlns="http://www.w3.org/2000/svg">
<path d="M7.5 6.25C7.91421 6.25 8.25 6.58579 8.25 7V10.4141C8.31634 10.3636 8.38712 10.3161 8.46191 10.2725L14.4922 6.75488C15.8255 5.97712 17.5 6.93884 17.5 8.48242V15.5176C17.5 17.0612 15.8255 18.0229 14.4922 17.2451L8.46191 13.7275C8.38695 13.6838 8.31647 13.6356 8.25 13.585V17C8.25 17.4142 7.91421 17.75 7.5 17.75C7.08579 17.75 6.75 17.4142 6.75 17V7C6.75 6.58579 7.08579 6.25 7.5 6.25Z" fill="white" fill-opacity="0.8"/>
</svg>
