<svg width="33" height="33" viewBox="0 0 33 33" fill="none" xmlns="http://www.w3.org/2000/svg">
<g id="Frame" clip-path="url(#clip0_3332_340)">
<g id="Group">
<path id="Vector" d="M16.2598 5.08749C16.2598 5.08749 18.8537 -0.286607 25.049 0.339868C25.1857 0.355064 25.3176 0.398713 25.4364 0.468005C25.5552 0.537297 25.6581 0.630695 25.7386 0.742186C26.4196 1.64953 26.7692 2.76281 26.7292 3.89659C26.6121 5.96706 18.9671 7.56193 18.9671 7.56193L17.3469 7.24009L16.2598 5.08749Z" fill="#FFA600"/>
<path id="Vector_2" d="M22.7233 5.90805C21.1418 6.49916 19.4676 6.8034 17.7793 6.80648C20.0344 4.76813 22.9058 3.54165 25.9376 3.32181C26.2948 3.29244 26.4284 3.70124 26.1826 3.96232C25.6286 4.54892 24.2204 5.33671 22.7233 5.90805Z" fill="#FFA800"/>
<path id="Vector_3" d="M16.2596 5.08749C16.2596 5.08749 13.6657 -0.286607 7.47038 0.339868C7.33372 0.355064 7.20175 0.398713 7.08298 0.468005C6.9642 0.537297 6.86126 0.630695 6.78077 0.742186C6.09975 1.64953 5.75015 2.76281 5.7902 3.89659C5.90732 5.96706 13.5522 7.56193 13.5522 7.56193L15.1724 7.24009L16.2596 5.08749Z" fill="#FFA600"/>
<path id="Vector_4" d="M9.79562 5.90805C11.3771 6.49916 13.0513 6.8034 14.7396 6.80648C13.4784 5.68454 12.0278 4.79575 10.4555 4.18159C9.21011 3.7171 7.90628 3.42775 6.58133 3.32181C6.22407 3.29244 6.09047 3.70124 6.33629 3.96232C6.88834 4.54892 8.30052 5.33671 9.79562 5.90805Z" fill="#FFA800"/>
<path id="Vector_5" d="M16.0945 8.82578C17.1682 8.82578 18.0387 7.95536 18.0387 6.88164C18.0387 5.80792 17.1682 4.9375 16.0945 4.9375C15.0208 4.9375 14.1504 5.80792 14.1504 6.88164C14.1504 7.95536 15.0208 8.82578 16.0945 8.82578Z" fill="#FFA800"/>
<path id="Vector_6" d="M0.398718 6.88281H31.7887C31.8944 6.88283 31.9959 6.92485 32.0706 6.99962C32.1454 7.07439 32.1874 7.17579 32.1874 7.28153V12.4661C32.1874 12.5718 32.1454 12.6732 32.0706 12.748C31.9959 12.8228 31.8944 12.8648 31.7887 12.8648H0.398718C0.292978 12.8648 0.191573 12.8228 0.116803 12.748C0.0420329 12.6732 1.90851e-05 12.5718 0 12.4661L0 7.28153C1.90851e-05 7.17579 0.0420329 7.07439 0.116803 6.99962C0.191573 6.92485 0.292978 6.88283 0.398718 6.88281Z" fill="#F62034"/>
<path id="Vector_7" d="M30.6013 11.7656V31.5074C30.6009 31.6131 30.5588 31.7143 30.4841 31.789C30.4094 31.8637 30.3082 31.9058 30.2025 31.9061H1.98661C1.88096 31.9058 1.77973 31.8637 1.70503 31.789C1.63032 31.7143 1.58821 31.6131 1.58789 31.5074V11.7656H30.6013Z" fill="#F62034"/>
<path id="Vector_8" d="M1.58789 12.8672H30.6017V14.2629H1.58789V12.8672Z" fill="#FF0022"/>
<path id="Vector_9" d="M13.7617 6.88281H18.4293V31.9081H13.7617V6.88281Z" fill="#FFA600"/>
<path id="Vector_10" d="M13.7598 12.8672H18.4298V14.2629H13.7598V12.8672Z" fill="#FFA800"/>
</g>
</g>
<defs>
<clipPath id="clip0_3332_340">
<rect width="32.1875" height="32.1875" fill="white"/>
</clipPath>
</defs>
</svg>
