<svg width="25" height="21" viewBox="0 0 25 21" fill="none" xmlns="http://www.w3.org/2000/svg">
<g id="Frame" clip-path="url(#clip0_3355_12846)">
<g id="Group">
<path id="Subtract" d="M4.25172 12.3936C4.49952 12.4225 4.73037 12.5338 4.907 12.71L8.74293 16.5459C8.91246 16.7155 9.02241 16.9355 9.05641 17.1729C9.0904 17.4102 9.04646 17.652 8.93141 17.8623L7.7986 19.9326C7.71589 20.0835 7.59921 20.2135 7.45778 20.3115C7.31629 20.4095 7.15355 20.4736 6.98317 20.4981C6.8128 20.5224 6.63864 20.5065 6.47536 20.4522C6.31211 20.3977 6.16349 20.3062 6.04176 20.1846L1.35817 15.5C1.23923 15.3819 1.14786 15.2383 1.09254 15.0801C1.03728 14.922 1.01942 14.7533 1.03883 14.5869C1.05827 14.4205 1.11459 14.2603 1.20485 14.1191C1.29511 13.978 1.41644 13.859 1.55934 13.7715L3.54078 12.5508C3.75336 12.4199 4.00378 12.3646 4.25172 12.3936ZM11.0222 0.500005C11.168 0.499566 11.3123 0.528448 11.447 0.583989C11.5818 0.639574 11.7043 0.721143 11.8074 0.824224C11.9105 0.927312 11.992 1.0498 12.0476 1.18458C12.1032 1.31931 12.132 1.46364 12.1316 1.60938V6.62793C12.0646 6.60844 11.9929 6.59193 11.9158 6.58106C11.366 6.50369 11.0036 6.72872 10.8035 6.96192C10.609 7.18855 10.522 7.46548 10.4959 7.65137L10.0574 10.7627L10.5252 10.8281L11.24 7.91504C11.2576 7.78984 11.4043 7.4644 11.5134 7.33692C11.617 7.21621 11.7139 7.18807 11.8279 7.20411C11.9418 7.22018 12.0273 7.27347 12.0935 7.41797C12.1097 7.45341 12.1215 7.49121 12.1316 7.5293V11.9082C12.1315 12.4965 11.8973 13.0606 11.4812 13.4766L9.36207 15.5967L5.72047 11.9551L6.63258 11.042C6.93086 10.7439 7.13797 10.3668 7.22926 9.95508L9.13649 1.36817C9.24973 0.861407 9.70048 0.500005 10.2195 0.500005H11.0222Z" fill="#664F42"/>
<path id="Subtract_2" d="M20.7444 12.3936C20.4966 12.4225 20.2657 12.5338 20.0891 12.71L16.2532 16.5459C16.0836 16.7155 15.9737 16.9355 15.9397 17.1729C15.9057 17.4102 15.9496 17.652 16.0647 17.8623L17.1975 19.9326C17.2802 20.0835 17.3969 20.2135 17.5383 20.3115C17.6798 20.4095 17.8425 20.4736 18.0129 20.4981C18.1833 20.5224 18.3575 20.5065 18.5207 20.4522C18.684 20.3977 18.8326 20.3062 18.9543 20.1846L23.6379 15.5C23.7569 15.3819 23.8482 15.2383 23.9036 15.0801C23.9588 14.922 23.9767 14.7533 23.9573 14.5869C23.9378 14.4205 23.8815 14.2603 23.7912 14.1191C23.701 13.978 23.5796 13.859 23.4368 13.7715L21.4553 12.5508C21.2427 12.4199 20.9923 12.3646 20.7444 12.3936ZM13.9739 0.500005C13.8281 0.499566 13.6838 0.528448 13.5491 0.583989C13.4143 0.639574 13.2918 0.721143 13.1887 0.824224C13.0856 0.927312 13.0041 1.0498 12.9485 1.18458C12.8929 1.31931 12.864 1.46364 12.8645 1.60938V6.62793C12.9315 6.60844 13.0032 6.59193 13.0803 6.58106C13.6301 6.50369 13.9925 6.72872 14.1926 6.96192C14.3871 7.18855 14.4741 7.46548 14.5002 7.65137L14.9387 10.7627L14.4709 10.8281L13.7561 7.91504C13.7384 7.78984 13.5918 7.4644 13.4827 7.33692C13.3791 7.21621 13.2822 7.18807 13.1682 7.20411C13.0543 7.22018 12.9688 7.27347 12.9026 7.41797C12.8864 7.45341 12.8746 7.49121 12.8645 7.5293V11.9082C12.8646 12.4965 13.0988 13.0606 13.5149 13.4766L15.634 15.5967L19.2756 11.9551L18.3635 11.042C18.0652 10.7439 17.8581 10.3668 17.7668 9.95508L15.8596 1.36817C15.7464 0.861407 15.2956 0.500005 14.7766 0.500005H13.9739Z" fill="#664F42"/>
</g>
</g>
<defs>
<clipPath id="clip0_3355_12846">
<rect width="24" height="20" fill="white" transform="translate(0.5 0.5)"/>
</clipPath>
</defs>
</svg>
