<svg width="22" height="26" viewBox="0 0 22 26" fill="none" xmlns="http://www.w3.org/2000/svg">
<path fill-rule="evenodd" clip-rule="evenodd" d="M11.004 0.640625C7.07578 0.640625 3.89127 3.6265 3.89127 7.30977V9.58546C3.89127 9.64106 3.89207 9.69656 3.89347 9.75176H3.83577C1.98487 9.75176 0.484375 11.2523 0.484375 13.1032V22.0443C0.484375 23.8952 1.98487 25.3957 3.83577 25.3957H18.1764C20.0274 25.3957 21.5279 23.8952 21.5279 22.0443V13.1033C21.5279 11.2523 20.0274 9.75176 18.1764 9.75176H18.1146C18.116 9.69656 18.1167 9.64106 18.1167 9.58546V7.30977C18.1167 3.62649 14.9323 0.640625 11.004 0.640625ZM14.6121 9.75176C14.6149 9.69666 14.6164 9.64126 14.6164 9.58546V7.30977C14.6164 5.43912 12.9991 3.92269 11.004 3.92269C9.00898 3.92269 7.39167 5.43912 7.39167 7.30977V9.58546C7.39167 9.64126 7.39307 9.69666 7.39598 9.75176H14.6121Z" fill="white"/>
</svg>
