<svg width="25" height="25" viewBox="0 0 25 25" fill="none" xmlns="http://www.w3.org/2000/svg">
<g id="Huge-icon/interface/outline/copy">
<path id="Vector" d="M8.5 8.5V6.5C8.5 4.29086 10.2909 2.5 12.5 2.5L18.5 2.5C20.7091 2.5 22.5 4.29086 22.5 6.5V12.5C22.5 14.7091 20.7091 16.5 18.5 16.5H16.5M8.5 8.5H6.5C4.29086 8.5 2.5 10.2909 2.5 12.5V18.5C2.5 20.7091 4.29086 22.5 6.5 22.5H12.5C14.7091 22.5 16.5 20.7091 16.5 18.5V16.5M8.5 8.5H12.5C14.7091 8.5 16.5 10.2909 16.5 12.5V16.5" stroke="white" stroke-width="1.5" stroke-linejoin="round"/>
</g>
</svg>
