<svg width="22" height="22" viewBox="0 0 22 22" fill="none" xmlns="http://www.w3.org/2000/svg">
<g id="Huge-icon/grid/outline/grid 01">
<g id="Vector">
<path d="M2.10938 3.89497C2.10938 2.91313 2.90531 2.11719 3.88715 2.11719H7.44271C8.42455 2.11719 9.22049 2.91313 9.22049 3.89497V5.67274C9.22049 6.65458 8.42455 7.45052 7.44271 7.45052H3.88715C2.90531 7.45052 2.10938 6.65458 2.10938 5.67274V3.89497Z" stroke="#2B2D6B" stroke-width="2" stroke-linejoin="round"/>
<path d="M2.10938 12.7839C2.10938 11.802 2.90531 11.0061 3.88715 11.0061H7.44271C8.42455 11.0061 9.22049 11.802 9.22049 12.7839V18.1172C9.22049 19.099 8.42455 19.895 7.44271 19.895H3.88715C2.90531 19.895 2.10938 19.099 2.10938 18.1172V12.7839Z" stroke="#2B2D6B" stroke-width="2" stroke-linejoin="round"/>
<path d="M12.776 3.89497C12.776 2.91313 13.572 2.11719 14.5538 2.11719H18.1094C19.0912 2.11719 19.8872 2.91313 19.8872 3.89497V9.2283C19.8872 10.2101 19.0912 11.0061 18.1094 11.0061H14.5538C13.572 11.0061 12.776 10.2101 12.776 9.2283V3.89497Z" stroke="#2B2D6B" stroke-width="2" stroke-linejoin="round"/>
<path d="M12.776 16.3394C12.776 15.3576 13.572 14.5616 14.5538 14.5616H18.1094C19.0912 14.5616 19.8872 15.3576 19.8872 16.3394V18.1172C19.8872 19.099 19.0912 19.895 18.1094 19.895H14.5538C13.572 19.895 12.776 19.099 12.776 18.1172V16.3394Z" stroke="#2B2D6B" stroke-width="2" stroke-linejoin="round"/>
</g>
</g>
</svg>
