<svg width="25" height="24" viewBox="0 0 25 24" fill="none" xmlns="http://www.w3.org/2000/svg">
<g id="Huge-icon/interface/outline/help">
<path id="Vector" d="M14.1831 10.0808L14.8138 10.4866L14.1831 10.0808ZM9.75 9C9.75 9.41421 10.0858 9.75 10.5 9.75C10.9142 9.75 11.25 9.41421 11.25 9H9.75ZM11.75 13.5C11.75 13.9142 12.0858 14.25 12.5 14.25C12.9142 14.25 13.25 13.9142 13.25 13.5H11.75ZM13.25 16C13.25 15.5858 12.9142 15.25 12.5 15.25C12.0858 15.25 11.75 15.5858 11.75 16H13.25ZM11.75 17C11.75 17.4142 12.0858 17.75 12.5 17.75C12.9142 17.75 13.25 17.4142 13.25 17H11.75ZM21.75 12C21.75 17.1086 17.6086 21.25 12.5 21.25V22.75C18.4371 22.75 23.25 17.9371 23.25 12H21.75ZM12.5 21.25C7.39137 21.25 3.25 17.1086 3.25 12H1.75C1.75 17.9371 6.56294 22.75 12.5 22.75V21.25ZM3.25 12C3.25 6.89137 7.39137 2.75 12.5 2.75V1.25C6.56294 1.25 1.75 6.06294 1.75 12H3.25ZM12.5 2.75C17.6086 2.75 21.75 6.89137 21.75 12H23.25C23.25 6.06294 18.4371 1.25 12.5 1.25V2.75ZM13.75 9C13.75 9.24996 13.6774 9.48068 13.5524 9.67495L14.8138 10.4866C15.0899 10.0576 15.25 9.54634 15.25 9H13.75ZM11.25 9C11.25 8.30964 11.8096 7.75 12.5 7.75V6.25C10.9812 6.25 9.75 7.48122 9.75 9H11.25ZM12.5 7.75C13.1904 7.75 13.75 8.30964 13.75 9H15.25C15.25 7.48122 14.0188 6.25 12.5 6.25V7.75ZM11.75 13V13.5H13.25V13H11.75ZM13.5524 9.67495C13.4265 9.87065 13.2688 10.0731 13.0836 10.3033C12.9063 10.5237 12.6979 10.7764 12.511 11.0333C12.1424 11.5398 11.75 12.2007 11.75 13H13.25C13.25 12.6947 13.4003 12.3605 13.7239 11.9158C13.883 11.697 14.058 11.4851 14.2523 11.2436C14.4387 11.0119 14.6409 10.7554 14.8138 10.4866L13.5524 9.67495ZM11.75 16V17H13.25V16H11.75Z" fill="white"/>
</g>
</svg>
