<svg width="25" height="24" viewBox="0 0 25 24" fill="none" xmlns="http://www.w3.org/2000/svg">
<g id="Huge-icon/interface/outline/language-skill-bulk-rounded 1">
<path id="Vector" d="M11.5492 14.85H3.48654M3.48654 14.85C4.66016 18.1708 7.82687 20.55 11.5492 20.55C10.0285 20.55 8.78599 16.9761 8.70383 12.475M3.48654 14.85C3.22171 14.1007 3.05842 13.3036 3.01301 12.475M13.4638 8.2H21.5265M21.5265 8.2C20.3529 4.8792 17.1861 2.5 13.4638 2.5C14.9845 2.5 16.227 6.07391 16.3092 10.575M21.5265 8.2C21.7913 8.94924 21.9546 9.74641 22 10.575M21.0483 13.9H15.3488C14.8242 13.9 14.3989 14.3253 14.3989 14.85V21.5L16.5481 20.2104C16.6957 20.1218 16.8646 20.075 17.0368 20.075H21.0483C21.5729 20.075 21.9982 19.6497 21.9982 19.125V14.85C21.9982 14.3253 21.5729 13.9 21.0483 13.9ZM3 3.45C3 2.92533 3.42529 2.5 3.94991 2.5H9.64937C10.174 2.5 10.5993 2.92533 10.5993 3.45V10.1L8.45012 8.81038C8.30249 8.7218 8.13356 8.675 7.9614 8.675H3.94991C3.42529 8.675 3 8.24967 3 7.725V3.45Z" stroke="white" stroke-width="1.5" stroke-linecap="round" stroke-linejoin="round"/>
</g>
</svg>
