<svg width="25" height="24" viewBox="0 0 25 24" fill="none" xmlns="http://www.w3.org/2000/svg">
<g id="Huge-icon/interface/outline/like">
<g id="Vector">
<path d="M6.5 8H4.5C3.39543 8 2.5 8.89543 2.5 10V19C2.5 20.1046 3.39543 21 4.5 21H6.5C7.60457 21 8.5 20.1046 8.5 19V10C8.5 8.89543 7.60457 8 6.5 8Z" stroke="white" stroke-width="1.5" stroke-linecap="round" stroke-linejoin="round"/>
<path d="M16.3769 21H12.7111C11.9214 21 11.1494 20.7662 10.4923 20.3282L8.9453 19.2969C8.6671 19.1114 8.5 18.7992 8.5 18.4648V10.2656C8.5 10.0915 8.54541 9.92052 8.63176 9.76943L12.5 3H13.8287C15.8254 3 17.0164 5.22536 15.9088 6.88675L14.5 9H19.9384C21.2396 9 22.1943 10.2228 21.8787 11.4851L20.2575 17.9701C19.8123 19.7508 18.2124 21 16.3769 21Z" stroke="white" stroke-width="1.5" stroke-linecap="round" stroke-linejoin="round"/>
</g>
</g>
</svg>
