<svg width="25" height="25" viewBox="0 0 25 25" fill="none" xmlns="http://www.w3.org/2000/svg">
<g id="Huge-icon/notes and task/outline/notes-edit-download">
<path id="Vector" d="M21.5 10.5V8C21.5 5.79086 19.7091 4 17.5 4H7.5C5.29086 4 3.5 5.79086 3.5 8V18.5C3.5 20.7091 5.29086 22.5 7.5 22.5H9.5M8.5 2.5V5.5M16.5 2.5V5.5M14.5 12.5L13.2071 13.7929C12.8166 14.1834 12.1834 14.1834 11.7929 13.7929L10.5 12.5M12.5 9.50003V13.5M12.5 22.5L15.5608 21.6274C15.7249 21.5806 15.8743 21.4928 15.995 21.3721L21.0098 16.3573C21.6634 15.7037 21.6634 14.6439 21.0098 13.9902C20.3561 13.3366 19.2963 13.3366 18.6427 13.9902L13.6279 19.005C13.5072 19.1257 13.4194 19.2751 13.3726 19.4392L12.5 22.5Z" stroke="white" stroke-width="1.5" stroke-linecap="round"/>
</g>
</svg>
