<svg width="24" height="28" viewBox="0 0 24 28" fill="none" xmlns="http://www.w3.org/2000/svg">
<g id="notification">
<path id="combo shape" d="M15.865 23.75C16.2155 23.7501 16.4996 24.0342 16.4997 24.3848C16.4997 24.4609 16.4863 24.5369 16.4577 24.6074C15.7716 26.2989 14.0344 27.5 11.9997 27.5C9.96501 27.5 8.22782 26.2989 7.54172 24.6074C7.51312 24.5369 7.49972 24.4609 7.49972 24.3848C7.49981 24.0342 7.78396 23.7501 8.13449 23.75H15.865ZM11.9997 0.5C16.8433 0.5 20.9189 4.23664 21.4802 9.19141L21.9978 13.7578C22.1263 14.8925 22.5857 15.9606 23.3161 16.8203C24.8662 18.6448 23.6085 21.4999 21.2546 21.5H2.74484C0.390912 21.4999 -0.866773 18.6448 0.683317 16.8203C1.41374 15.9606 1.87312 14.8925 2.00168 13.7578L2.51925 9.19141C3.08053 4.23664 7.15614 0.500001 11.9997 0.5Z" fill="#AD866F"/>
</g>
</svg>
