<svg width="22" height="22" viewBox="0 0 22 22" fill="none" xmlns="http://www.w3.org/2000/svg">
<g id="huge-icon/education/outline/online learning">
<path id="Vector" d="M10.9978 9.56149V19.4127M9.22005 5.25952C9.74303 4.957 10.3502 4.78385 10.9978 4.78385C11.6455 4.78385 12.2526 4.957 12.7756 5.25952M7.44227 3.23247C8.45013 2.52947 9.67583 2.11719 10.9978 2.11719C12.3198 2.11719 13.5455 2.52947 14.5534 3.23247M5.30491 7.45831C6.88242 7.63162 9.00183 8.09785 10.512 9.12668C10.8023 9.32441 11.1934 9.32441 11.4836 9.12668C12.9938 8.09785 15.1132 7.63162 16.6908 7.45831C17.4715 7.37254 18.1089 8.00639 18.1089 8.78842V16.5764C18.1089 17.3584 17.4715 17.9925 16.6908 18.0783C15.1132 18.2516 12.9938 18.7178 11.4836 19.7467C11.1934 19.9444 10.8023 19.9444 10.512 19.7467C9.00183 18.7178 6.88242 18.2516 5.30491 18.0783C4.52418 17.9925 3.88672 17.3584 3.88672 16.5764V8.78842C3.88672 8.00639 4.52418 7.37254 5.30491 7.45831Z" stroke="#3F5A2A" stroke-width="2" stroke-linecap="round"/>
</g>
</svg>
