<svg width="21" height="16" viewBox="0 0 21 16" fill="none" xmlns="http://www.w3.org/2000/svg">
<g id="send fast">
<path id="Combo shape" fill-rule="evenodd" clip-rule="evenodd" d="M8.45352 0.260329L19.6842 5.87225C21.4386 6.74893 21.4386 9.25107 19.6842 10.1278L8.45352 15.7397C6.45607 16.7378 4.30682 14.6853 5.21382 12.6458L6.85018 8.96616C6.88175 8.89518 6.90967 8.82303 6.93396 8.75L11 8.75C11.4142 8.75 11.75 8.41421 11.75 8C11.75 7.58579 11.4142 7.25 11 7.25L6.93396 7.25C6.90967 7.17696 6.88175 7.10482 6.85018 7.03384L5.21382 3.35425C4.30682 1.31474 6.45607 -0.737791 8.45352 0.260329ZM0.25 6C0.25 5.58579 0.585786 5.25 1 5.25H3C3.41421 5.25 3.75 5.58579 3.75 6C3.75 6.41421 3.41421 6.75 3 6.75H1C0.585786 6.75 0.25 6.41421 0.25 6ZM1 9.25C0.585786 9.25 0.25 9.58579 0.25 10C0.25 10.4142 0.585786 10.75 1 10.75H3C3.41421 10.75 3.75 10.4142 3.75 10C3.75 9.58579 3.41421 9.25 3 9.25H1Z" fill="#664F42"/>
</g>
</svg>
