<svg width="17" height="20" viewBox="0 0 17 20" fill="none" xmlns="http://www.w3.org/2000/svg">
<g id="book add">
<path id="Union" fill-rule="evenodd" clip-rule="evenodd" d="M3.89844 0L13.8984 0C15.5553 0 16.8984 1.34315 16.8984 3V12.5H3.89844C2.74591 12.5 1.69457 12.9333 0.898438 13.6458V3C0.898438 1.34315 2.24158 0 3.89844 0ZM8.89844 3.25C9.31265 3.25 9.64844 3.58579 9.64844 4V6.25H11.8984C12.3127 6.25 12.6484 6.58579 12.6484 7C12.6484 7.41421 12.3127 7.75 11.8984 7.75H9.64844V10C9.64844 10.4142 9.31265 10.75 8.89844 10.75C8.48422 10.75 8.14844 10.4142 8.14844 10V7.75H5.89844C5.48422 7.75 5.14844 7.41421 5.14844 7C5.14844 6.58579 5.48422 6.25 5.89844 6.25H8.14844V4C8.14844 3.58579 8.48422 3.25 8.89844 3.25ZM3.89844 14C2.24158 14 0.898438 15.3431 0.898438 17C0.898438 18.6569 2.24158 20 3.89844 20H13.8984C15.5553 20 16.8984 18.6569 16.8984 17V14H3.89844Z" fill="#664F42"/>
</g>
</svg>
