<svg width="21" height="18" viewBox="0 0 21 18" fill="none" xmlns="http://www.w3.org/2000/svg">
<g id="chat">
<path id="Subtract" fill-rule="evenodd" clip-rule="evenodd" d="M9.69922 0L11.6992 0C16.6698 0 20.6992 4.02944 20.6992 9C20.6992 13.9706 16.6698 18 11.6992 18H4.69922C2.49008 18 0.699219 16.2091 0.699219 14V9C0.699219 4.02944 4.72866 0 9.69922 0ZM6.69922 11.75C6.28501 11.75 5.94922 11.4142 5.94922 11C5.94922 10.5858 6.28501 10.25 6.69922 10.25H10.6992C11.1134 10.25 11.4492 10.5858 11.4492 11C11.4492 11.4142 11.1134 11.75 10.6992 11.75H6.69922ZM6.69922 7.75C6.28501 7.75 5.94922 7.41421 5.94922 7C5.94922 6.58579 6.28501 6.25 6.69922 6.25H14.6992C15.1134 6.25 15.4492 6.58579 15.4492 7C15.4492 7.41421 15.1134 7.75 14.6992 7.75H6.69922Z" fill="#866856"/>
</g>
</svg>
