<svg width="25" height="24" viewBox="0 0 25 24" fill="none" xmlns="http://www.w3.org/2000/svg">
<g id="Huge-icon/smart house/solid/home-favourite">
<path id="Vector" fill-rule="evenodd" clip-rule="evenodd" d="M21.5 10.1503V17.9668C21.5 20.1943 19.7091 22 17.5 22H7.5C5.29086 22 3.5 20.1943 3.5 17.9668V10.1503C3.5 8.93937 4.03964 7.7925 4.96986 7.02652L9.96986 2.90935C11.4423 1.69689 13.5577 1.69688 15.0301 2.90935L20.0301 7.02652C20.9604 7.7925 21.5 8.93937 21.5 10.1503ZM12.5 12.0001L12.8094 11.6908C13.6636 10.8365 15.0487 10.8365 15.903 11.6908C16.7572 12.545 16.7572 13.9301 15.903 14.7844L13.7374 16.9499C13.054 17.6333 11.946 17.6333 11.2626 16.9499L9.09705 14.7844C8.24278 13.9301 8.24278 12.545 9.09705 11.6908C9.95132 10.8365 11.3364 10.8365 12.1906 11.6908L12.5 12.0001Z" fill="#866856"/>
</g>
</svg>
