<svg width="16" height="16" viewBox="0 0 16 16" fill="none" xmlns="http://www.w3.org/2000/svg">
<g id="Huge-icon/device/outline/notification">
<path id="Vector" d="M2.97163 9.25337L2.40006 8.76776L2.40006 8.76776L2.97163 9.25337ZM3.55781 7.89233L2.81257 7.80791L3.55781 7.89233ZM12.4448 7.89233L13.19 7.80791L13.19 7.80791L12.4448 7.89233ZM13.031 9.25337L13.6025 8.76776L13.6025 8.76776L13.031 9.25337ZM12.2149 5.86269L11.4696 5.94711L11.4696 5.94711L12.2149 5.86269ZM3.78773 5.86269L4.53296 5.94711L3.78773 5.86269ZM10.7036 12.9299C10.849 12.542 10.6524 12.1097 10.2645 11.9644C9.87664 11.819 9.44437 12.0156 9.299 12.4035L10.7036 12.9299ZM6.7036 12.4035C6.55824 12.0156 6.12597 11.819 5.7381 11.9644C5.35023 12.1097 5.15364 12.542 5.299 12.9299L6.7036 12.4035ZM12.1145 10.5833H3.88806V12.0833H12.1145V10.5833ZM11.4696 5.94711L11.6996 7.97675L13.19 7.80791L12.9601 5.77827L11.4696 5.94711ZM4.30304 7.97675L4.53296 5.94711L3.04249 5.77827L2.81257 7.80791L4.30304 7.97675ZM3.5432 9.73897C3.96554 9.24186 4.22936 8.62715 4.30304 7.97675L2.81257 7.80791C2.77199 8.16616 2.62702 8.50063 2.40006 8.76776L3.5432 9.73897ZM11.6996 7.97675C11.7732 8.62715 12.0371 9.24186 12.4594 9.73897L13.6025 8.76776C13.3756 8.50063 13.2306 8.16616 13.19 7.80791L11.6996 7.97675ZM3.88806 10.5833C3.52438 10.5833 3.23987 10.096 3.5432 9.73897L2.40006 8.76776C1.32552 10.0325 2.15931 12.0833 3.88806 12.0833V10.5833ZM12.1145 12.0833C13.8433 12.0833 14.6771 10.0325 13.6025 8.76776L12.4594 9.73897C12.7627 10.096 12.4782 10.5833 12.1145 10.5833V12.0833ZM12.9601 5.77827C12.6697 3.21444 10.5528 1.25 8.0013 1.25V2.75C9.75518 2.75 11.2612 4.1067 11.4696 5.94711L12.9601 5.77827ZM4.53296 5.94711C4.74144 4.1067 6.24742 2.75 8.0013 2.75V1.25C5.44977 1.25 3.33292 3.21444 3.04249 5.77827L4.53296 5.94711ZM9.299 12.4035C9.12185 12.8762 8.62421 13.25 8.0013 13.25V14.75C9.2251 14.75 10.2985 14.0108 10.7036 12.9299L9.299 12.4035ZM8.0013 13.25C7.3784 13.25 6.88076 12.8762 6.7036 12.4035L5.299 12.9299C5.70409 14.0108 6.7775 14.75 8.0013 14.75V13.25Z" fill="white"/>
</g>
</svg>
