<svg width="25" height="24" viewBox="0 0 25 24" fill="none" xmlns="http://www.w3.org/2000/svg">
<g id="Huge-icon/ecommerce/outline/receipt">
<path id="Vector" d="M17.6992 7H7.69922M17.6992 11H7.69922M12.6992 15H7.69922M5.69922 2H19.6992C20.8038 2 21.6992 2.89543 21.6992 4V19.1543C21.6992 20.5396 20.3251 21.5053 19.0218 21.0361L17.46 20.4739C16.972 20.2982 16.4348 20.319 15.9618 20.5318L13.5199 21.6307C12.998 21.8655 12.4004 21.8655 11.8785 21.6307L9.43659 20.5318C8.96361 20.319 8.42643 20.2982 7.93842 20.4739L6.37666 21.0361C5.07334 21.5053 3.69922 20.5396 3.69922 19.1543V4C3.69922 2.89543 4.59465 2 5.69922 2Z" stroke="#5A5A5A" stroke-width="1.5" stroke-linecap="round"/>
</g>
</svg>
