<svg width="16" height="16" viewBox="0 0 16 16" fill="none" xmlns="http://www.w3.org/2000/svg">
<g id="Huge-icon/interface/outline/share" clip-path="url(#clip0_2989_4452)">
<path id="Vector" d="M5.75282 6.95888C5.36974 6.19421 4.57885 5.66927 3.66536 5.66927C2.3767 5.66927 1.33203 6.71394 1.33203 8.0026C1.33203 9.29127 2.3767 10.3359 3.66536 10.3359C4.57885 10.3359 5.36974 9.811 5.75282 9.04633M5.75282 6.95888C5.91015 7.27293 5.9987 7.62743 5.9987 8.0026C5.9987 8.37778 5.91015 8.73228 5.75282 9.04633M5.75282 6.95888L10.2446 4.713M5.75282 9.04633L10.2446 11.2922M10.2446 4.713C10.6277 5.47767 11.4185 6.0026 12.332 6.0026C13.6207 6.0026 14.6654 4.95794 14.6654 3.66927C14.6654 2.38061 13.6207 1.33594 12.332 1.33594C11.0434 1.33594 9.9987 2.38061 9.9987 3.66927C9.9987 4.04445 10.0872 4.39894 10.2446 4.713ZM10.2446 11.2922C10.0872 11.6063 9.9987 11.9608 9.9987 12.3359C9.9987 13.6246 11.0434 14.6693 12.332 14.6693C13.6207 14.6693 14.6654 13.6246 14.6654 12.3359C14.6654 11.0473 13.6207 10.0026 12.332 10.0026C11.4185 10.0026 10.6277 10.5275 10.2446 11.2922Z" stroke="#664F42" stroke-width="1.5" stroke-linecap="round"/>
</g>
<defs>
<clipPath id="clip0_2989_4452">
<rect width="16" height="16" fill="white"/>
</clipPath>
</defs>
</svg>
