<svg width="21" height="20" viewBox="0 0 21 20" fill="none" xmlns="http://www.w3.org/2000/svg">
<g id="Frame" clip-path="url(#clip0_2997_18420)">
<g id="Group">
<path id="Subtract" fill-rule="evenodd" clip-rule="evenodd" d="M4.3064 13.9117C4.12012 13.8899 3.93194 13.9316 3.77224 14.0299L2.2839 14.9474C2.17651 15.0131 2.08545 15.1024 2.01761 15.2085C1.94978 15.3145 1.90694 15.4346 1.89233 15.5597C1.87772 15.6847 1.89173 15.8115 1.93329 15.9303C1.97485 16.0492 2.04288 16.157 2.13223 16.2457L5.6514 19.7649C5.74292 19.8564 5.85449 19.9253 5.97725 19.9661C6.10002 20.007 6.23062 20.0187 6.3587 20.0004C6.48679 19.982 6.60884 19.9341 6.71518 19.8604C6.82153 19.7867 6.90925 19.6892 6.9714 19.5757L7.82223 18.0207C7.90871 17.8627 7.94165 17.6809 7.91611 17.5026C7.89057 17.3242 7.80793 17.159 7.68057 17.0316L4.7989 14.1499C4.66618 14.0174 4.49267 13.9335 4.3064 13.9117ZM8.14557 16.3182L5.40973 13.5824L6.09473 12.8966C6.31892 12.6726 6.47447 12.3893 6.54307 12.0799L7.9764 5.62907C8.0614 5.24823 8.39974 4.97657 8.78974 4.97657H9.39307C9.5026 4.97624 9.61111 4.99757 9.71236 5.03933C9.81362 5.08109 9.90561 5.14246 9.98306 5.21991C10.0605 5.29736 10.1219 5.38935 10.1636 5.49061C10.2054 5.59186 10.2267 5.70037 10.2264 5.8099V9.57953C10.176 9.56487 10.1219 9.55316 10.0638 9.545C9.65073 9.48687 9.37877 9.65566 9.22844 9.83087C9.08236 10.0011 9.01681 10.2088 8.99716 10.3485L8.6682 12.6862L9.01952 12.7356L9.55676 10.547C9.57 10.4529 9.67992 10.2079 9.76197 10.1123C9.83977 10.0216 9.9124 10.0005 9.99802 10.0125C10.0836 10.0246 10.1476 10.0649 10.1974 10.1735C10.2093 10.1995 10.2189 10.2269 10.2264 10.2548V13.5474C10.2263 13.9894 10.0507 14.4132 9.73807 14.7257L8.14557 16.3182Z" fill="#664F42"/>
<path id="Subtract_2" fill-rule="evenodd" clip-rule="evenodd" d="M16.6975 13.9117C16.8838 13.8899 17.072 13.9316 17.2317 14.0299L18.72 14.9474C18.8274 15.0131 18.9185 15.1024 18.9863 15.2085C19.0541 15.3145 19.097 15.4346 19.1116 15.5597C19.1262 15.6847 19.1122 15.8115 19.0706 15.9303C19.0291 16.0492 18.961 16.157 18.8717 16.2457L15.3525 19.7649C15.261 19.8564 15.1494 19.9253 15.0267 19.9661C14.9039 20.007 14.7733 20.0187 14.6452 20.0004C14.5171 19.982 14.3951 19.9341 14.2887 19.8604C14.1824 19.7867 14.0947 19.6892 14.0325 19.5757L13.1817 18.0207C13.0952 17.8627 13.0623 17.6809 13.0878 17.5026C13.1133 17.3242 13.196 17.159 13.3233 17.0316L16.205 14.1499C16.3377 14.0174 16.5112 13.9335 16.6975 13.9117ZM12.8583 16.3182L15.5942 13.5824L14.9092 12.8966C14.685 12.6726 14.5294 12.3893 14.4608 12.0799L13.0275 5.62907C12.9425 5.24823 12.6042 4.97657 12.2142 4.97657H11.6108C11.5013 4.97624 11.3928 4.99757 11.2915 5.03933C11.1903 5.08109 11.0983 5.14246 11.0208 5.21991C10.9434 5.29736 10.882 5.38935 10.8403 5.49061C10.7985 5.59186 10.7772 5.70037 10.7775 5.8099V9.57953C10.8279 9.56487 10.8821 9.55316 10.9401 9.545C11.3532 9.48687 11.6251 9.65566 11.7755 9.83087C11.9215 10.0011 11.9871 10.2088 12.0067 10.3485L12.3357 12.6862L11.9844 12.7356L11.4472 10.547C11.4339 10.4529 11.324 10.2079 11.2419 10.1123C11.1641 10.0216 11.0915 10.0005 11.0059 10.0125C10.9203 10.0246 10.8563 10.0649 10.8065 10.1735C10.7946 10.1995 10.785 10.2269 10.7775 10.2548V13.5474C10.7776 13.9894 10.9533 14.4132 11.2658 14.7257L12.8583 16.3182Z" fill="#664F42"/>
</g>
<path id="Vector" d="M16.0223 5.0528L17.2645 3.81034C17.4909 3.58398 17.4909 3.21671 17.2645 2.99035C17.038 2.7638 16.6708 2.7638 16.4443 2.99035L15.2021 4.23258C14.9755 4.45913 14.9755 4.82621 15.2021 5.05276C15.4284 5.27912 15.7957 5.27935 16.0223 5.0528ZM18.7179 8.41079H17.4757C17.1553 8.41079 16.8958 8.6704 16.8958 8.9907C16.8958 9.31084 17.1553 9.5706 17.4757 9.5706H18.7179C19.0382 9.5706 19.2978 9.31084 19.2978 8.9907C19.2978 8.6704 19.0382 8.41079 18.7179 8.41079ZM11.2229 0.915842C11.2229 0.595541 10.9633 0.335938 10.643 0.335938C10.3227 0.335938 10.0631 0.595541 10.0631 0.915842V2.15811C10.0631 2.47841 10.3227 2.73802 10.643 2.73802C10.9633 2.73802 11.2229 2.47841 11.2229 2.15811V0.915842ZM5.26385 5.0528C5.49021 5.27916 5.85748 5.27935 6.08399 5.0528C6.31038 4.82625 6.31038 4.45913 6.08399 4.23262L4.8418 2.99035C4.61525 2.7638 4.24813 2.7638 4.02162 2.99035C3.79522 3.2169 3.79522 3.58402 4.02162 3.81038L5.26385 5.0528ZM4.39036 8.9907C4.39036 8.6704 4.13076 8.41079 3.81046 8.41079H2.56819C2.24788 8.41079 1.98828 8.6704 1.98828 8.9907C1.98828 9.31084 2.24788 9.5706 2.56819 9.5706H3.81046C4.13076 9.5706 4.39036 9.311 4.39036 8.9907Z" fill="#664F42"/>
</g>
<defs>
<clipPath id="clip0_2997_18420">
<rect width="20" height="20" fill="white" transform="translate(0.5)"/>
</clipPath>
</defs>
</svg>
