<svg width="16" height="16" viewBox="0 0 16 16" fill="none" xmlns="http://www.w3.org/2000/svg">
<g id="apps">
<path id="combo shape" d="M4 10C5.10457 10 6 10.8954 6 12V14C6 15.1046 5.10457 16 4 16H2C0.895431 16 0 15.1046 0 14V12C0 10.8954 0.895431 10 2 10H4ZM13 10C14.6569 10 16 11.3431 16 13C16 14.6569 14.6569 16 13 16C11.3431 16 10 14.6569 10 13C10 11.3431 11.3431 10 13 10ZM3 0C4.65685 0 6 1.34315 6 3C6 4.65685 4.65685 6 3 6C1.34315 6 0 4.65685 0 3C0 1.34315 1.34315 0 3 0ZM14 0C15.1046 0 16 0.895431 16 2V4C16 5.10457 15.1046 6 14 6H12C10.8954 6 10 5.10457 10 4V2C10 0.895431 10.8954 0 12 0H14Z" fill="#FFCF5F"/>
</g>
</svg>
