<svg width="20" height="20" viewBox="0 0 20 20" fill="none" xmlns="http://www.w3.org/2000/svg">
<g id="Huge-icon/interface/outline/copy" clip-path="url(#clip0_3140_9609)">
<path id="Vector" d="M6.66797 6.66406V4.9974C6.66797 3.15645 8.16035 1.66406 10.0013 1.66406L15.0013 1.66406C16.8423 1.66406 18.3346 3.15645 18.3346 4.9974V9.9974C18.3346 11.8383 16.8423 13.3307 15.0013 13.3307H13.3346M6.66797 6.66406H5.0013C3.16035 6.66406 1.66797 8.15645 1.66797 9.9974V14.9974C1.66797 16.8383 3.16035 18.3307 5.0013 18.3307H10.0013C11.8423 18.3307 13.3346 16.8383 13.3346 14.9974V13.3307M6.66797 6.66406H10.0013C11.8423 6.66406 13.3346 8.15645 13.3346 9.9974V13.3307" stroke="#664F42" stroke-width="1.5" stroke-linejoin="round"/>
</g>
<defs>
<clipPath id="clip0_3140_9609">
<rect width="20" height="20" fill="white"/>
</clipPath>
</defs>
</svg>
