<svg width="20" height="20" viewBox="0 0 20 20" fill="none" xmlns="http://www.w3.org/2000/svg">
<g id="huge-icon/education/outline/gender">
<g id="Vector">
<path d="M5.57422 13.3335V15.3685H4.10938C3.83949 15.3685 3.62109 15.5869 3.62109 15.8568C3.62109 16.1267 3.83949 16.3451 4.10938 16.3451H5.57422V17.8424C5.57422 18.1123 5.79261 18.3307 6.0625 18.3307C6.33239 18.3307 6.55078 18.1123 6.55078 17.8424V16.3451H8.01563C8.28551 16.3451 8.50391 16.1267 8.50391 15.8568C8.50391 15.5869 8.28551 15.3685 8.01563 15.3685H6.55078V13.3354C6.88291 13.2928 7.20726 13.2254 7.51478 13.1168C7.23451 12.8835 6.98024 12.6209 6.75231 12.3361C6.52535 12.3828 6.29422 12.4063 6.0625 12.4063C4.17803 12.4063 2.64453 10.8728 2.64453 8.98828C2.64453 7.10381 4.17803 5.57031 6.0625 5.57031C8.01003 5.57031 9.48047 7.23148 9.48047 8.98828C9.48047 9.55387 9.32914 10.0798 9.0848 10.5502C9.29824 10.8041 9.55925 11.0124 9.85824 11.1627C10.2287 10.5188 10.457 9.78298 10.457 8.98828C10.457 6.72344 8.5944 4.59375 6.0625 4.59375C3.63923 4.59375 1.66797 6.56501 1.66797 8.98828C1.66797 11.2444 3.38298 13.0869 5.57422 13.3335Z" fill="#664F42"/>
<path d="M17.8464 1.66406H14.9167C14.6468 1.66406 14.4284 1.88245 14.4284 2.15234C14.4284 2.42223 14.6468 2.64063 14.9167 2.64063H16.6676L13.673 5.57009C12.9212 4.96865 11.9809 4.59375 10.9453 4.59375C10.4339 4.59375 9.94997 4.6984 9.49303 4.85977C9.77331 5.09307 10.0276 5.35563 10.2555 5.64046C10.4825 5.59375 10.7136 5.57025 10.9453 5.57031C12.8298 5.57031 14.3633 7.10381 14.3633 8.98828C14.3633 10.8728 12.8298 12.4063 10.9453 12.4063C9.01097 12.4063 7.52734 10.7633 7.52734 8.98828C7.52734 8.42269 7.67868 7.89675 7.92301 7.42634C7.70957 7.17249 7.44857 6.96416 7.14958 6.8139C6.77913 7.45781 6.55078 8.19359 6.55078 8.98828C6.55078 11.2752 8.46344 13.3828 10.9453 13.3828C13.3686 13.3828 15.3398 11.4116 15.3398 8.98828C15.3398 7.9527 14.9649 7.0124 14.3635 6.26055L17.3581 3.33109V5.08203C17.3581 5.35192 17.5765 5.57031 17.8464 5.57031C18.1162 5.57031 18.3346 5.35192 18.3346 5.08203V2.15234C18.3346 1.88519 18.1157 1.66406 17.8464 1.66406Z" fill="#664F42"/>
<path d="M5.57422 13.3335V15.3685H4.10938C3.83949 15.3685 3.62109 15.5869 3.62109 15.8568C3.62109 16.1267 3.83949 16.3451 4.10938 16.3451H5.57422V17.8424C5.57422 18.1123 5.79261 18.3307 6.0625 18.3307C6.33239 18.3307 6.55078 18.1123 6.55078 17.8424V16.3451H8.01563C8.28551 16.3451 8.50391 16.1267 8.50391 15.8568C8.50391 15.5869 8.28551 15.3685 8.01563 15.3685H6.55078V13.3354C6.88291 13.2928 7.20726 13.2254 7.51478 13.1168C7.23451 12.8835 6.98024 12.6209 6.75231 12.3361C6.52535 12.3828 6.29422 12.4063 6.0625 12.4063C4.17803 12.4063 2.64453 10.8728 2.64453 8.98828C2.64453 7.10381 4.17803 5.57031 6.0625 5.57031C8.01003 5.57031 9.48047 7.23148 9.48047 8.98828C9.48047 9.55387 9.32914 10.0798 9.0848 10.5502C9.29824 10.8041 9.55925 11.0124 9.85824 11.1627C10.2287 10.5188 10.457 9.78298 10.457 8.98828C10.457 6.72344 8.5944 4.59375 6.0625 4.59375C3.63923 4.59375 1.66797 6.56501 1.66797 8.98828C1.66797 11.2444 3.38298 13.0869 5.57422 13.3335Z" stroke="#664F42" stroke-width="0.5"/>
<path d="M17.8464 1.66406H14.9167C14.6468 1.66406 14.4284 1.88245 14.4284 2.15234C14.4284 2.42223 14.6468 2.64063 14.9167 2.64063H16.6676L13.673 5.57009C12.9212 4.96865 11.9809 4.59375 10.9453 4.59375C10.4339 4.59375 9.94997 4.6984 9.49303 4.85977C9.77331 5.09307 10.0276 5.35563 10.2555 5.64046C10.4825 5.59375 10.7136 5.57025 10.9453 5.57031C12.8298 5.57031 14.3633 7.10381 14.3633 8.98828C14.3633 10.8728 12.8298 12.4063 10.9453 12.4063C9.01097 12.4063 7.52734 10.7633 7.52734 8.98828C7.52734 8.42269 7.67868 7.89675 7.92301 7.42634C7.70957 7.17249 7.44857 6.96416 7.14958 6.8139C6.77913 7.45781 6.55078 8.19359 6.55078 8.98828C6.55078 11.2752 8.46344 13.3828 10.9453 13.3828C13.3686 13.3828 15.3398 11.4116 15.3398 8.98828C15.3398 7.9527 14.9649 7.0124 14.3635 6.26055L17.3581 3.33109V5.08203C17.3581 5.35192 17.5765 5.57031 17.8464 5.57031C18.1162 5.57031 18.3346 5.35192 18.3346 5.08203V2.15234C18.3346 1.88519 18.1157 1.66406 17.8464 1.66406Z" stroke="#664F42" stroke-width="0.5"/>
</g>
</g>
</svg>
