<svg width="20" height="20" viewBox="0 0 20 20" fill="none" xmlns="http://www.w3.org/2000/svg">
<g id="Huge-icon/interface/outline/language-skill-bulk-rounded 1">
<path id="Vector" d="M9.20635 12.3776H2.48748M2.48748 12.3776C3.4655 15.145 6.10442 17.1276 9.20635 17.1276C7.9391 17.1276 6.90369 14.1494 6.83522 10.3984M2.48748 12.3776C2.26679 11.7532 2.13071 11.0889 2.09288 10.3984M10.8019 6.83594H17.5208M17.5208 6.83594C16.5427 4.0686 13.9038 2.08594 10.8019 2.08594C12.0691 2.08594 13.1045 5.0642 13.173 8.8151M17.5208 6.83594C17.7415 7.4603 17.8775 8.12461 17.9154 8.8151M17.1223 11.5859H12.3727C11.9355 11.5859 11.5811 11.9404 11.5811 12.3776V17.9193L13.3721 16.8446C13.4951 16.7708 13.6359 16.7318 13.7794 16.7318H17.1223C17.5595 16.7318 17.9139 16.3773 17.9139 15.9401V12.3776C17.9139 11.9404 17.5595 11.5859 17.1223 11.5859ZM2.08203 2.8776C2.08203 2.44038 2.43644 2.08594 2.87362 2.08594H7.62317C8.06035 2.08594 8.41476 2.44038 8.41476 2.8776V8.41927L6.6238 7.34459C6.50077 7.27077 6.36 7.23177 6.21653 7.23177H2.87362C2.43644 7.23177 2.08203 6.87733 2.08203 6.4401V2.8776Z" stroke="#664F42" stroke-width="1.5" stroke-linecap="round" stroke-linejoin="round"/>
</g>
</svg>
