<svg width="20" height="20" viewBox="0 0 20 20" fill="none" xmlns="http://www.w3.org/2000/svg">
<g id="Huge-icon/interface/outline/logout">
<path id="Vector 750" d="M16.668 11.6641L17.6275 10.7045C18.0181 10.314 18.0181 9.68081 17.6275 9.29029L16.668 8.33073" stroke="#664F42" stroke-width="1.5" stroke-linecap="round" stroke-linejoin="round"/>
<path id="Vector" d="M17.5013 10.0026H10.8346M5.0013 16.6693C3.16035 16.6693 1.66797 15.1769 1.66797 13.3359V6.66927C1.66797 4.82832 3.16035 3.33594 5.0013 3.33594M5.0013 16.6693C6.84225 16.6693 8.33464 15.1769 8.33464 13.3359V6.66927C8.33464 4.82832 6.84225 3.33594 5.0013 3.33594M5.0013 16.6693H11.668C13.5089 16.6693 15.0013 15.1769 15.0013 13.3359M5.0013 3.33594H11.668C13.5089 3.33594 15.0013 4.82832 15.0013 6.66927" stroke="#664F42" stroke-width="1.5" stroke-linecap="round"/>
</g>
</svg>
