<svg width="20" height="20" viewBox="0 0 20 20" fill="none" xmlns="http://www.w3.org/2000/svg">
<g id="Huge-icon/device/outline/notification">
<path id="Vector" d="M3.71161 11.5667L3.14004 11.0811L3.14004 11.0811L3.71161 11.5667ZM4.44433 9.86541L3.6991 9.78099L4.44433 9.86541ZM15.5531 9.86542L16.2983 9.781L16.2983 9.781L15.5531 9.86542ZM16.2858 11.5667L16.8574 11.0811L16.8574 11.0811L16.2858 11.5667ZM15.2657 7.32836L14.5204 7.41278L14.5204 7.41278L15.2657 7.32836ZM4.73173 7.32836L5.47696 7.41278L5.47696 7.41278L4.73173 7.32836ZM13.201 16.0965C13.3464 15.7087 13.1498 15.2764 12.7619 15.131C12.374 14.9857 11.9418 15.1823 11.7964 15.5701L13.201 16.0965ZM8.201 15.5701C8.05563 15.1823 7.62336 14.9857 7.23549 15.131C6.84762 15.2764 6.65104 15.7087 6.7964 16.0965L8.201 15.5701ZM15.1403 14.1667V13.4167H4.85714V14.1667V14.9167H15.1403V14.1667ZM15.2657 7.32836L14.5204 7.41278L14.8078 9.94984L15.5531 9.86542L16.2983 9.781L16.0109 7.24394L15.2657 7.32836ZM4.44433 9.86541L5.18956 9.94983L5.47696 7.41278L4.73173 7.32836L3.98649 7.24394L3.6991 9.78099L4.44433 9.86541ZM3.71161 11.5667L4.28318 12.0523C4.78668 11.4597 5.1016 10.7263 5.18956 9.94983L4.44433 9.86541L3.6991 9.78099C3.64423 10.2653 3.44816 10.7184 3.14004 11.0811L3.71161 11.5667ZM15.5531 9.86542L14.8078 9.94984C14.8958 10.7263 15.2107 11.4597 15.7142 12.0523L16.2858 11.5667L16.8574 11.0811C16.5492 10.7184 16.3532 10.2653 16.2983 9.781L15.5531 9.86542ZM4.85714 14.1667V13.4167C4.23191 13.4167 3.80761 12.6121 4.28318 12.0523L3.71161 11.5667L3.14004 11.0811C1.89326 12.5486 2.86684 14.9167 4.85714 14.9167V14.1667ZM15.1403 14.1667V14.9167C17.1306 14.9167 18.1041 12.5486 16.8574 11.0811L16.2858 11.5667L15.7142 12.0523C16.1898 12.6121 15.7655 13.4167 15.1403 13.4167V14.1667ZM15.2657 7.32836L16.0109 7.24394C15.6581 4.12959 13.0884 1.75 9.9987 1.75V2.5V3.25C12.2908 3.25 14.2496 5.02184 14.5204 7.41278L15.2657 7.32836ZM4.73173 7.32836L5.47696 7.41278C5.74781 5.02184 7.70664 3.25 9.9987 3.25V2.5V1.75C6.90899 1.75 4.33929 4.12959 3.98649 7.24394L4.73173 7.32836ZM12.4987 15.8333L11.7964 15.5701C11.5465 16.237 10.8524 16.75 9.9987 16.75V17.5V18.25C11.4533 18.25 12.7231 17.3716 13.201 16.0965L12.4987 15.8333ZM9.9987 17.5V16.75C9.14495 16.75 8.45093 16.237 8.201 15.5701L7.4987 15.8333L6.7964 16.0965C7.27427 17.3716 8.54406 18.25 9.9987 18.25V17.5Z" fill="#664F42"/>
</g>
</svg>
