<svg width="20" height="20" viewBox="0 0 20 20" fill="none" xmlns="http://www.w3.org/2000/svg">
<g id="Huge-icon/device/outline/phone-lock">
<path id="Vector" d="M11.6654 13.3307V12.4974C11.6654 11.5769 12.4116 10.8307 13.332 10.8307C14.2525 10.8307 14.9987 11.5769 14.9987 12.4974V13.3307M11.6654 13.3307H14.9987M11.6654 13.3307C10.7449 13.3307 9.9987 14.0769 9.9987 14.9974V16.6641C9.9987 17.5845 10.7449 18.3307 11.6654 18.3307H14.9987C15.9192 18.3307 16.6654 17.5845 16.6654 16.6641V14.9974C16.6654 14.0769 15.9192 13.3307 14.9987 13.3307M7.4987 18.3307H5.83203C4.45132 18.3307 3.33203 17.2114 3.33203 15.8307V4.16406C3.33203 2.78335 4.45132 1.66406 5.83203 1.66406H12.4987C13.8794 1.66406 14.9987 2.78335 14.9987 4.16406V8.33073" stroke="#664F42" stroke-width="1.5" stroke-linecap="round" stroke-linejoin="round"/>
</g>
</svg>
