<svg width="20" height="20" viewBox="0 0 20 20" fill="none" xmlns="http://www.w3.org/2000/svg">
<g id="Huge-icon/interface/outline/star" clip-path="url(#clip0_3140_14975)">
<path id="Star 2" d="M8.36198 2.72357C9.03255 1.31089 10.9701 1.31089 11.6406 2.72357L12.7995 5.16504C13.0658 5.72602 13.5806 6.11484 14.176 6.2048L16.7674 6.59631C18.2669 6.82284 18.8656 8.73868 17.7806 9.8383L15.9054 11.7387C15.4745 12.1754 15.2779 12.8045 15.3796 13.4211L15.8223 16.1045C16.0784 17.6572 14.511 18.8413 13.1698 18.1082L10.852 16.8412C10.3194 16.5501 9.68318 16.5501 9.15061 16.8412L6.83277 18.1082C5.49163 18.8413 3.92415 17.6572 4.18029 16.1045L4.62296 13.4211C4.72467 12.8045 4.52806 12.1754 4.0972 11.7387L2.22203 9.8383C1.13702 8.73868 1.73574 6.82284 3.23519 6.59631L5.82661 6.2048C6.42204 6.11484 6.93677 5.72602 7.20306 5.16504L8.36198 2.72357Z" stroke="#664F42" stroke-width="1.5" stroke-linejoin="round"/>
</g>
<defs>
<clipPath id="clip0_3140_14975">
<rect width="20" height="20" fill="white"/>
</clipPath>
</defs>
</svg>
