<svg width="24" height="24" viewBox="0 0 24 24" fill="none" xmlns="http://www.w3.org/2000/svg">
<g id="Huge-icon/editor/outline/font-size">
<path id="Rectangle 1030" d="M18.707 13.3408C18.707 14.8224 17.506 16.0234 16.0244 16.0234V16.0234C14.5428 16.0234 13.3418 14.8224 13.3418 13.3408V13.3408C13.3418 11.8593 14.5428 10.6582 16.0244 10.6582V10.6582C17.506 10.6582 18.707 11.8593 18.707 13.3408V13.3408Z" stroke="#292929" stroke-width="1.5" stroke-linejoin="round"/>
<path id="Vector 2626" d="M6.63281 13.3438H10.6567" stroke="#292929" stroke-width="1.5" stroke-linecap="round"/>
<path id="Vector" d="M5.29297 16.0244L8.64624 7.97656L11.9995 16.0244" stroke="#292929" stroke-width="1.5" stroke-linecap="round" stroke-linejoin="round"/>
<path id="Vector 2627" d="M18.707 10.6562V16.0215" stroke="#292929" stroke-width="1.5" stroke-linecap="round"/>
<path id="Rectangle 1040" d="M2 6C2 3.79086 3.79086 2 6 2L18 2C20.2091 2 22 3.79086 22 6V18C22 20.2091 20.2091 22 18 22H6C3.79086 22 2 20.2091 2 18L2 6Z" stroke="#101010" stroke-width="1.5" stroke-linejoin="round"/>
</g>
</svg>
