<svg width="24" height="24" viewBox="0 0 24 24" fill="none" xmlns="http://www.w3.org/2000/svg">
<g id="Frame">
<g id="Group">
<path id="Vector" d="M15.0125 15.3891C15.0125 14.8939 14.8957 14.4055 14.6774 13.9623C14.1389 12.8872 13.0845 10.78 12.4707 9.55499C12.1615 8.93379 12.0004 8.24941 12 7.5555V7.55512C11.9998 7.17353 12.0748 6.79564 12.2208 6.44309C12.3669 6.09054 12.581 5.77026 12.851 5.5006C13.1937 5.1594 13.5063 4.84538 13.5063 4.84538L18.025 13.8829V19.5313L18.7781 20.2844L15.7656 23.2969C15.7656 23.2969 14.2142 21.7455 13.1033 20.6342C12.3954 19.9282 12 18.9702 12 17.9716V13.1297H12.7531C13.9995 13.1297 15.0125 14.1412 15.0125 15.3891ZM15.0125 15.3891V16.5188" stroke="#737373" stroke-miterlimit="10" stroke-linecap="round" stroke-linejoin="round"/>
<path id="Vector_2" d="M8.9883 15.3891C8.9883 14.8939 9.10507 14.4055 9.32346 13.9623C9.86191 12.8872 10.9163 10.78 11.5301 9.55499C11.8393 8.93379 12.0004 8.2494 12.0008 7.5555V7.55512C12.0008 6.78464 11.6957 6.04547 11.1497 5.5006C10.8071 5.1594 10.4945 4.84538 10.4945 4.84538L5.97579 13.8829V19.5313L5.22266 20.2844L8.23516 23.2969C8.23516 23.2969 9.78663 21.7455 10.8974 20.6342C11.6054 19.9282 12.0008 18.9702 12.0008 17.9716V13.1297H11.2477C10.0012 13.1297 8.9883 14.1412 8.9883 15.3891ZM8.9883 15.3891V16.5188" stroke="#737373" stroke-miterlimit="10" stroke-linecap="round" stroke-linejoin="round"/>
<path id="Vector_3" d="M19.5336 3.71252L18.0273 5.21875" stroke="#737373" stroke-miterlimit="10" stroke-linecap="round" stroke-linejoin="round"/>
<path id="Vector_4" d="M21.7914 10.4922H20.2852" stroke="#737373" stroke-miterlimit="10" stroke-linecap="round" stroke-linejoin="round"/>
<path id="Vector_5" d="M12 2.21094V0.704707" stroke="#737373" stroke-miterlimit="10" stroke-linecap="round" stroke-linejoin="round"/>
<path id="Vector_6" d="M4.46875 3.71252L5.97498 5.21875" stroke="#737373" stroke-miterlimit="10" stroke-linecap="round" stroke-linejoin="round"/>
<path id="Vector_7" d="M2.21094 10.4922H3.71717" stroke="#737373" stroke-miterlimit="10" stroke-linecap="round" stroke-linejoin="round"/>
</g>
</g>
</svg>
