<svg width="24" height="24" viewBox="0 0 24 24" fill="none" xmlns="http://www.w3.org/2000/svg">
<g id="Frame">
<g id="Group">
<path id="Vector" d="M16.7656 23.2969L19.7781 20.2844L19.025 19.5313V13.8829L14.5063 4.84538C14.5063 4.84538 14.1937 5.1594 13.851 5.5006C13.581 5.77026 13.3669 6.09054 13.2208 6.44309C13.0748 6.79564 12.9998 7.17353 13 7.55512V7.5555C13.0004 8.24941 13.1615 8.93379 13.4707 9.55499C14.0845 10.78 15.1389 12.8872 15.6774 13.9623C15.8957 14.4055 16.0125 14.8939 16.0125 15.3891C16.0125 14.1412 14.9995 13.1297 13.7531 13.1297H13V17.9716C13 18.9702 13.3954 19.9282 14.1033 20.6342C15.2142 21.7455 16.7656 23.2969 16.7656 23.2969Z" fill="#664F42"/>
<path id="Vector_2" d="M8.23516 23.2969L5.22266 20.2844L5.97579 19.5313V13.8829L10.4945 4.84538C10.4945 4.84538 10.8071 5.1594 11.1497 5.5006C11.6957 6.04547 12.0008 6.78464 12.0008 7.55512V7.5555C12.0004 8.2494 11.8393 8.93379 11.5301 9.55499C10.9163 10.78 9.86191 12.8872 9.32346 13.9623C9.10507 14.4055 8.9883 14.8939 8.9883 15.3891C8.9883 14.1412 10.0012 13.1297 11.2477 13.1297H12.0008V17.9716C12.0008 18.9702 11.6054 19.9282 10.8974 20.6342C9.78663 21.7455 8.23516 23.2969 8.23516 23.2969Z" fill="#664F42"/>
<path id="Vector_3" d="M19.5336 3.71252L18.0273 5.21875" stroke="#664F42" stroke-miterlimit="10" stroke-linecap="round" stroke-linejoin="round"/>
<path id="Vector_4" d="M21.7914 10.4922H20.2852" stroke="#664F42" stroke-miterlimit="10" stroke-linecap="round" stroke-linejoin="round"/>
<path id="Vector_5" d="M12 2.21094V0.704707" stroke="#664F42" stroke-miterlimit="10" stroke-linecap="round" stroke-linejoin="round"/>
<path id="Vector_6" d="M4.46875 3.71252L5.97498 5.21875" stroke="#664F42" stroke-miterlimit="10" stroke-linecap="round" stroke-linejoin="round"/>
<path id="Vector_7" d="M2.21094 10.4922H3.71717" stroke="#664F42" stroke-miterlimit="10" stroke-linecap="round" stroke-linejoin="round"/>
</g>
</g>
</svg>
