<svg width="12" height="12" viewBox="0 0 12 12" fill="none" xmlns="http://www.w3.org/2000/svg">
<g id="next">
<path id="combo shape" fill-rule="evenodd" clip-rule="evenodd" d="M11.25 1C11.25 0.585786 10.9142 0.25 10.5 0.25C10.0858 0.25 9.75 0.585786 9.75 1V4.41372C9.68371 4.36326 9.6132 4.31603 9.53847 4.27244L3.50774 0.754515C2.17443 -0.0232515 0.5 0.938493 0.5 2.48207V6V9.51793C0.5 11.0615 2.17443 12.0232 3.50774 11.2455L9.53848 7.72756C9.6132 7.68396 9.68371 7.63674 9.75 7.58628V11C9.75 11.4142 10.0858 11.75 10.5 11.75C10.9142 11.75 11.25 11.4142 11.25 11V1Z" fill="#292929"/>
</g>
</svg>
