<svg width="12" height="12" viewBox="0 0 12 12" fill="none" xmlns="http://www.w3.org/2000/svg">
<g id="previous">
<path id="combo shape" fill-rule="evenodd" clip-rule="evenodd" d="M2.25 1C2.25 0.585786 1.91421 0.25 1.5 0.25C1.08579 0.25 0.75 0.585786 0.75 1V11C0.75 11.4142 1.08579 11.75 1.5 11.75C1.91421 11.75 2.25 11.4142 2.25 11V7.58628C2.31629 7.63674 2.3868 7.68396 2.46152 7.72756L8.49226 11.2455C9.82557 12.0232 11.5 11.0615 11.5 9.51793V6V2.48207C11.5 0.938493 9.82557 -0.0232515 8.49226 0.754515L2.46153 4.27244C2.3868 4.31603 2.31629 4.36326 2.25 4.41372V1Z" fill="#292929"/>
</g>
</svg>
